<svg xmlns="http://www.w3.org/2000/svg" xmlns:xlink="http://www.w3.org/1999/xlink" viewBox="0 0 283.98 283.98"><defs><style>.cls-1{fill:url(#Dégradé_sans_nom_7);}.cls-2,.cls-3{fill:#fff;}.cls-3{font-size:30px;font-family:Roboto-Medium, Roboto;letter-spacing:0.19em;}.cls-4{letter-spacing:0.18em;}</style><linearGradient id="Dégradé_sans_nom_7" x1="141.99" x2="141.99" y2="283.98" gradientUnits="userSpaceOnUse"><stop offset="0" stop-color="#ff2c36"/><stop offset="1" stop-color="#338fdf"/></linearGradient></defs><title>Fichier 1</title><g id="Calque_2" data-name="Calque 2"><g id="Calque_1-2" data-name="Calque 1"><rect class="cls-1" width="283.98" height="283.98" rx="25" ry="25"/><path class="cls-2" d="M138.29,71.3a173.62,173.62,0,0,0-47-9.82L118.1,107.1v-.9Z"/><path class="cls-2" d="M142,27a93,93,0,1,0,93,93A93,93,0,0,0,142,27Zm23.89,79.21,41.83,72.25q-1.7,1.91-3.52,3.73-2.92,2.92-6.08,5.54l-32.23-54.85-8.27,14.68L124,206.12a87.13,87.13,0,0,1-12.48-3.58l32.28-55H58.44A87.06,87.06,0,0,1,56,138.41h64.88l-11-18.42L76.26,61.54q1.71-1.92,3.53-3.75a88,88,0,0,1,141.91,25c-17.78,2.65-42.06,2.52-71.07-7l-9.53,16.7h84.45a87.35,87.35,0,0,1,2.48,9.15H163.14Z"/><text class="cls-3" transform="translate(48.24 257.85)">E-RÉAL<tspan class="cls-4" x="132.89" y="0">I</tspan><tspan x="146.63" y="0">TÉ</tspan></text></g></g></svg>