<?xml version="1.0" encoding="utf-8"?>
<!-- Generator: Adobe Illustrator 21.0.2, SVG Export Plug-In . SVG Version: 6.00 Build 0)  -->
<svg version="1.1" id="Calque_1" xmlns="http://www.w3.org/2000/svg" xmlns:xlink="http://www.w3.org/1999/xlink" x="0px" y="0px"
	 viewBox="0 0 930 1080" style="enable-background:new 0 0 930 1080;" xml:space="preserve">
<style type="text/css">
	.st0{fill:none;stroke:#000000;stroke-miterlimit:10;}
	.st1{opacity:0.1;fill:#FFFFFF;stroke:#FFFFFF;stroke-width:3;stroke-linejoin:round;stroke-miterlimit:10;}
</style>
<path class="st0" d="M-2957,1731"/>
<line class="st0" x1="-2956" y1="1731" x2="-2956" y2="1731"/>
<path class="st1" d="M465,145.5C247.5,145.5,70.5,322.5,70.5,540S247.5,934.5,465,934.5S859.5,757.5,859.5,540
	S682.5,145.5,465,145.5z M688.8,392.2L593,486.9l83.3,198.8l10.4,23.9l-20.8,14.6L634.7,745l-26,17.7l-17.7-25L488.9,592L414,667
	l9.4,70.8l3.1,22.9l-21.9,9.4l-18.7,8.3l-29.1,12.5l-12.5-29.1L313,688.8l-71.8-35.4l-28.1-13.5l13.5-28.1l9.4-18.7l10.4-20.8
	l22.9,3.1l69.7,11.4l71.8-71.8l-141.6-98.9l-25-17.7l17.7-26l20.8-31.2l14.6-20.8l23.9,9.4L516,410.9l96.8-96.8
	c10.4-10.4,23.9-15.6,38.5-15.6c14.6,0,28.1,5.2,38.5,15.6s15.6,23.9,15.6,38.5C705.4,374.5,692.9,387,688.8,392.2z"/>
</svg>
