<svg id="Calque_1" data-name="Calque 1" xmlns="http://www.w3.org/2000/svg" viewBox="0 0 50 50"><defs><style>.cls-1{fill:#fff;}</style></defs><title>playlist</title><path class="cls-1" d="M48.54,12.55H1.46A1.46,1.46,0,0,0,0,14V48.54A1.46,1.46,0,0,0,1.46,50H48.54A1.47,1.47,0,0,0,50,48.54V14a1.46,1.46,0,0,0-1.46-1.46ZM33.26,32.49,21.5,40.34a1.46,1.46,0,0,1-2.28-1.22V23.43a1.47,1.47,0,0,1,2.28-1.22l11.77,7.85a1.46,1.46,0,0,1,0,2.44Zm0,0" transform="translate(0)"/><path class="cls-1" d="M43.83,6.28H6.17a1.46,1.46,0,0,0,0,2.93H43.83a1.46,1.46,0,0,0,0-2.93Zm0,0" transform="translate(0)"/><path class="cls-1" d="M39.12,0H10.88a1.46,1.46,0,0,0,0,2.93H39.12a1.46,1.46,0,0,0,0-2.93Zm0,0" transform="translate(0)"/></svg>