<svg id="Calque_1" data-name="Calque 1" xmlns="http://www.w3.org/2000/svg" viewBox="0 0 50 45.92"><defs><style>.cls-1{fill:#fff;}</style></defs><title>son</title><path class="cls-1" d="M23.25,5.25a1.82,1.82,0,0,0-2,.4l-11,11.06H1.82A1.82,1.82,0,0,0,0,18.53V31.65a1.82,1.82,0,0,0,1.82,1.82h8.42l11,11.06a1.82,1.82,0,0,0,1.29.53,1.79,1.79,0,0,0,.69-.14,1.81,1.81,0,0,0,1.12-1.68V6.93a1.82,1.82,0,0,0-1.13-1.68Zm0,0" transform="translate(0 -2.06)"/><path class="cls-1" d="M42.17,25A17,17,0,0,0,31.85,9.4a1.82,1.82,0,0,0-1.43,3.34,13.36,13.36,0,0,1,0,24.55,1.82,1.82,0,0,0,.73,3.49,1.79,1.79,0,0,0,.72-.15A17,17,0,0,0,42.17,25Zm0,0" transform="translate(0 -2.06)"/><path class="cls-1" d="M34.13,25a8.93,8.93,0,0,0-5.46-8.24,1.82,1.82,0,0,0-1.42,3.35,5.31,5.31,0,0,1,0,9.76A1.82,1.82,0,0,0,28,33.38a1.8,1.8,0,0,0,.73-.15A8.94,8.94,0,0,0,34.13,25Zm0,0" transform="translate(0 -2.06)"/><path class="cls-1" d="M34.94,2.21a1.82,1.82,0,1,0-1.43,3.34,21.19,21.19,0,0,1,0,38.94A1.82,1.82,0,1,0,35,47.83a24.82,24.82,0,0,0,0-45.62Zm0,0" transform="translate(0 -2.06)"/></svg>